<svg width="41" height="41" viewBox="0 0 41 41" fill="none" xmlns="http://www.w3.org/2000/svg">
<path fill-rule="evenodd" clip-rule="evenodd" d="M20.9274 4.84125C20.1416 4.708 19.0687 4.69775 17.1349 4.69775C13.86 4.69775 11.5316 4.70117 9.76858 4.93692C8.03974 5.16755 7.0472 5.60317 6.32458 6.32409C5.60195 7.045 5.16803 8.03755 4.93741 9.75613C4.70166 11.5123 4.69824 13.8254 4.69824 17.0849V23.9182C4.69824 27.1743 4.70166 29.4874 4.93741 31.2435C5.16803 32.9621 5.60195 33.953 6.32458 34.6773C7.0472 35.3982 8.03803 35.8321 9.75662 36.0628C11.5128 36.3002 13.8259 36.3019 17.0837 36.3019H23.917C27.1748 36.3019 29.4896 36.2985 31.2457 36.0628C32.9626 35.8321 33.9535 35.3982 34.6761 34.6756C35.3987 33.953 35.8326 32.9621 36.0632 31.2435C36.299 29.4891 36.3024 27.1743 36.3024 23.9165V23.17C36.3024 20.546 36.2853 19.3023 36.0052 18.3644H30.6581C28.7225 18.3644 27.1423 18.3644 25.8918 18.197C24.5884 18.021 23.4575 17.6418 22.5537 16.7381C21.65 15.8344 21.2708 14.7052 21.0948 13.3983C20.9274 12.1512 20.9274 10.5693 20.9274 8.63205V4.84125ZM23.4899 6.16692V8.5415C23.4899 10.5915 23.4933 11.9992 23.6351 13.0566C23.7718 14.0782 24.0178 14.5788 24.3663 14.9255C24.7148 15.2723 25.2136 15.52 26.2352 15.6567C27.2927 15.7985 28.7003 15.8019 30.7503 15.8019H34.2012C33.5455 15.1777 32.8792 14.5649 32.2024 13.9638L25.4391 7.87696C24.8011 7.29368 24.1513 6.72355 23.4899 6.16692ZM17.3826 2.13525C19.7487 2.13525 21.2776 2.13525 22.6836 2.67338C24.0895 3.21321 25.2205 4.23138 26.9715 5.80817L27.1543 5.97217L33.9159 12.059L34.1294 12.2503C36.1521 14.0697 37.4607 15.2467 38.1628 16.8252C38.8649 18.4037 38.8666 20.1633 38.8649 22.883V24.0122C38.8649 27.1521 38.8649 29.6394 38.6035 31.5852C38.3336 33.5874 37.7664 35.2086 36.4886 36.4881C35.2091 37.766 33.5879 38.3331 31.5857 38.603C29.6382 38.8644 27.1526 38.8644 24.0127 38.8644H16.988C13.8481 38.8644 11.3607 38.8644 9.41495 38.603C7.41278 38.3331 5.79158 37.766 4.51203 36.4881C3.2342 35.2086 2.66703 33.5874 2.39712 31.5852C2.13574 29.6377 2.13574 27.1521 2.13574 24.0122V16.9892C2.13574 13.8493 2.13574 11.362 2.39712 9.41617C2.66703 7.414 3.2342 5.7928 4.51203 4.51325C5.79328 3.23371 7.41791 2.66825 9.42862 2.39834C11.383 2.13696 13.8822 2.13696 17.0392 2.13696H17.3843" fill="black"/>
</svg>
