<svg width="25" height="26" viewBox="0 0 25 26" fill="none" xmlns="http://www.w3.org/2000/svg">
<path d="M12.5 16.25C14.2259 16.25 15.625 14.7949 15.625 13C15.625 11.2051 14.2259 9.75 12.5 9.75C10.7741 9.75 9.375 11.2051 9.375 13C9.375 14.7949 10.7741 16.25 12.5 16.25Z" fill="#E0E0E0"/>
<path d="M24.1715 12.7238C23.2527 10.2518 21.6575 8.11413 19.5831 6.57482C17.5087 5.03551 15.0461 4.16209 12.4997 4.0625C9.9532 4.16209 7.4906 5.03551 5.41623 6.57482C3.34187 8.11413 1.74667 10.2518 0.827793 12.7238C0.765736 12.9023 0.765736 13.0977 0.827793 13.2762C1.74667 15.7482 3.34187 17.8859 5.41623 19.4252C7.4906 20.9645 9.9532 21.8379 12.4997 21.9375C15.0461 21.8379 17.5087 20.9645 19.5831 19.4252C21.6575 17.8859 23.2527 15.7482 24.1715 13.2762C24.2336 13.0977 24.2336 12.9023 24.1715 12.7238ZM12.4997 18.2812C11.4953 18.2812 10.5135 17.9715 9.67841 17.3912C8.84332 16.8109 8.19244 15.9861 7.80809 15.021C7.42374 14.056 7.32318 12.9941 7.51912 11.9697C7.71506 10.9452 8.1987 10.0042 8.90889 9.26559C9.61908 8.527 10.5239 8.02401 11.509 7.82023C12.494 7.61645 13.5151 7.72104 14.443 8.12076C15.3709 8.52049 16.164 9.1974 16.722 10.0659C17.28 10.9344 17.5778 11.9555 17.5778 13C17.5757 14.4 17.04 15.7421 16.0882 16.732C15.1363 17.722 13.8458 18.2791 12.4997 18.2812Z" fill="#E0E0E0"/>
</svg>
