<svg width="83" height="51" viewBox="0 0 83 51" fill="none" xmlns="http://www.w3.org/2000/svg">
<path d="M52.7223 28.0453L41.3414 33.1035C38.8122 33.9466 34.5124 35.7593 32.4892 33.7359C29.9601 31.2066 30.5923 28.6776 32.4892 26.7809C33.8303 25.4398 39.4441 24.2518 47.6637 19.1936C54.2393 15.1471 64.735 14.1355 69.1609 14.1354C72.9546 13.9247 80.9212 14.7677 82.4387 19.8259C83.9561 24.8841 78.8558 32.0498 76.1159 35.0004C70.847 39.6371 56.389 49.2898 40.7087 50.8072C21.1083 52.704 6.56648 40.0586 2.77285 36.8972C-1.02079 33.7359 -0.388515 31.2067 1.5083 28.6776C3.40512 26.1484 9.85445 30.9899 14.7855 33.1036C19.211 35.0006 29.7498 37.9509 35.651 38.1617C38.8119 38.1617 48.9287 32.8506 51.4578 31.839C54.6192 30.5745 55.8837 29.9421 55.8837 28.6776C55.8837 27.6659 53.7761 27.8345 52.7223 28.0453Z" fill="#37CDAF"/>
<path d="M11.6236 29.3098C13.141 30.8272 23.6367 34.5787 28.6949 36.2648L23.6373 33.1034C21.3189 31.8389 16.5558 29.0569 16.05 28.0453C15.4177 26.7807 11.6236 23.6194 9.09448 22.9871C6.56539 22.3549 4.03631 26.1484 4.66858 25.5162C5.30085 24.8839 9.72676 27.413 11.6236 29.3098Z" fill="#37CDAF"/>
<path d="M16.6823 26.1484C17.1881 27.6659 25.7448 33.525 29.96 36.2648C29.96 35.8433 29.707 34.7473 28.6949 33.7357C27.4298 32.4712 29.3277 31.8389 27.4309 31.2066C25.9134 30.7008 24.6911 28.8883 24.2695 28.0453C23.848 26.9915 22.3727 24.631 19.8436 23.6194C17.3145 22.6077 15.8392 23.1978 15.4177 23.6194C15.4177 23.8301 15.6706 24.631 16.6823 26.1484Z" fill="#37CDAF"/>
<path d="M16.0498 5.91606C16.0498 12.4917 24.9016 19.6153 29.3275 22.3551C29.749 21.9335 31.8566 21.0904 35.6502 17.929C39.3161 14.8741 41.973 10.974 42.6052 9.0772C43.4483 6.54815 43.7433 1.23715 38.1793 0.225513C31.2243 -1.03903 29.3275 6.54823 29.3275 5.28369C29.3275 4.27205 26.3769 1.91164 24.9016 0.857881C21.951 -0.195906 16.0498 -0.659572 16.0498 5.91606Z" fill="#37CDAF"/>
</svg>
