<svg width="73" height="59" viewBox="0 0 73 59" fill="none" xmlns="http://www.w3.org/2000/svg">
<path d="M16.4992 37.6064L12.925 29.4885C12.3292 27.6844 11.0483 24.6175 12.4781 23.1743C14.2653 21.3703 16.0524 21.8213 17.3926 23.1743C18.3402 24.1309 19.1797 28.1352 22.7539 33.9981C25.6133 38.6885 26.3281 46.175 26.3281 49.332C26.4771 52.0379 25.8814 57.7205 22.3072 58.8029C18.7329 59.8852 13.6695 56.2472 11.5845 54.2929C8.30817 50.5346 1.48739 40.2219 0.415124 29.0372C-0.925204 15.0564 8.01032 4.68382 10.2442 1.97785C12.4781 -0.72812 14.2653 -0.277125 16.0524 1.07586C17.8395 2.42884 14.4184 7.0291 12.9248 10.5464C11.5844 13.703 9.49964 21.2203 9.35072 25.4296C9.35072 27.6842 13.1037 34.9005 13.8185 36.7045C14.712 38.9594 15.1588 39.8614 16.0524 39.8614C16.7672 39.8614 16.6481 38.3581 16.4992 37.6064Z" fill="#37CDAF"/>
<path d="M15.5743 8.38536C14.4825 9.45143 11.7833 16.8251 10.5702 20.3786L12.8448 16.8254C13.7546 15.1967 15.7563 11.8504 16.4841 11.4951C17.394 11.0509 19.6685 8.38536 20.1234 6.60858C20.5784 4.8318 17.8489 3.05502 18.3038 3.49921C18.7587 3.94341 16.9391 7.05277 15.5743 8.38536Z" fill="#37CDAF"/>
<path d="M17.8489 11.9393C16.7571 12.2946 12.5415 18.3061 10.5702 21.2674C10.8734 21.2674 11.662 21.0896 12.3898 20.3786C13.2997 19.4899 13.7546 20.8232 14.2095 19.4906C14.5735 18.4245 15.8776 17.5658 16.4841 17.2696C17.2423 16.9735 18.9407 15.937 19.6686 14.1603C20.3964 12.3835 19.9719 11.347 19.6686 11.0509C19.5169 11.0509 18.9407 11.2286 17.8489 11.9393Z" fill="#37CDAF"/>
<path d="M56.7801 37.6064L60.3543 29.4885C60.9501 27.6844 62.231 24.6175 60.8012 23.1743C59.014 21.3703 57.2269 21.8213 55.8867 23.1743C54.9391 24.1309 54.0996 28.1352 50.5254 33.9981C47.666 38.6885 46.9512 46.175 46.9512 49.332C46.8022 52.0379 47.3979 57.7205 50.9721 58.8029C54.5464 59.8852 59.6098 56.2472 61.6948 54.2929C64.9711 50.5346 71.7919 40.2219 72.8642 29.0372C74.2045 15.0564 65.269 4.68382 63.0351 1.97785C60.8012 -0.72812 59.014 -0.277125 57.2269 1.07586C55.4398 2.42884 58.8609 7.0291 60.3545 10.5464C61.6949 13.703 63.7797 21.2203 63.9286 25.4296C63.9286 27.6842 60.1756 34.9005 59.4608 36.7045C58.5673 38.9594 58.1205 39.8614 57.2269 39.8614C56.5121 39.8614 56.6312 38.3581 56.7801 37.6064Z" fill="#37CDAF"/>
<path d="M57.705 8.38536C58.7968 9.45143 61.496 16.8251 62.7091 20.3786L60.4345 16.8254C59.5247 15.1967 57.523 11.8504 56.7952 11.4951C55.8853 11.0509 53.6108 8.38536 53.1558 6.60858C52.7009 4.8318 55.4304 3.05502 54.9755 3.49921C54.5206 3.94341 56.3402 7.05277 57.705 8.38536Z" fill="#37CDAF"/>
<path d="M55.4304 11.9393C56.5222 12.2946 60.7378 18.3061 62.7091 21.2674C62.4059 21.2674 61.6173 21.0896 60.8895 20.3786C59.9796 19.4899 59.5247 20.8232 59.0698 19.4906C58.7058 18.4245 57.4017 17.5658 56.7952 17.2696C56.037 16.9735 54.3386 15.937 53.6107 14.1603C52.8829 12.3835 53.3074 11.347 53.6107 11.0509C53.7624 11.0509 54.3386 11.2286 55.4304 11.9393Z" fill="#37CDAF"/>
<path d="M23.6045 24.711C23.6045 30.9129 31.9532 37.6316 36.1275 40.2157C36.5251 39.8181 38.5129 39.0228 42.0909 36.0412C45.5484 33.1599 48.0543 29.4815 48.6506 27.6925C49.4457 25.3072 49.724 20.298 44.4763 19.3439C37.9166 18.1512 36.1275 25.3072 36.1275 24.1146C36.1275 23.1604 33.3446 20.9342 31.9532 19.9403C29.1703 18.9464 23.6045 18.5091 23.6045 24.711Z" fill="#37CDAF"/>
<circle cx="35.9532" cy="14.4071" r="5.48837" fill="#37CDAF"/>
</svg>
