<svg width="56" height="42" viewBox="0 0 56 42" xmlns="http://www.w3.org/2000/svg">
<rect width="56" height="42" fill="#37CDAF"></rect>
<path d="M35.6943 26.4453L27.9891 29.8728C26.2768 30.4441 23.3657 31.6725 21.9959 30.3014C20.2837 28.5875 20.7117 26.8737 21.9959 25.5885C22.9039 24.6798 26.7046 23.8747 32.2694 20.4472C36.7213 17.7052 43.8271 17.0197 46.8236 17.0197C49.3919 16.8768 54.7855 17.4481 55.8129 20.8756C56.8402 24.3032 53.3872 29.1589 51.5323 31.1583C47.9651 34.3002 38.1767 40.8411 27.5607 41.8693C14.2908 43.1547 4.44566 34.5858 1.87728 32.4436C-0.691096 30.3014 -0.263033 28.5875 1.02116 26.8737C2.30534 25.1599 6.67169 28.4407 10.0102 29.8729C13.0063 31.1584 20.1413 33.1576 24.1366 33.3004C26.2765 33.3004 33.1259 29.7015 34.8381 29.016C36.9784 28.1591 37.8346 27.7306 37.8346 26.8737C37.8346 26.1882 36.4077 26.3025 35.6943 26.4453Z" fill="#FFFFFF"/>
<circle cx="14.5" cy="12.5" r="12.5" fill="#FFFFFF"/>
<g clip-path="url(#clip0_1_8062)">
<path d="M15.7107 13.8034H8.39844V11.8989H15.6624C16.3128 11.8989 16.8376 11.8 17.2369 11.6022C17.6361 11.398 17.9291 11.1141 18.1159 10.7505C18.3026 10.3868 18.396 9.96248 18.396 9.47759C18.396 9.04374 18.3026 8.63859 18.1159 8.26216C17.9291 7.88572 17.6393 7.57948 17.2465 7.34341C16.8537 7.10096 16.3418 6.97974 15.7107 6.97974H12.7935V19H10.369V5.06567H15.7107C16.7925 5.06567 17.7134 5.25389 18.4732 5.63032C19.2332 6.00675 19.8159 6.52674 20.2216 7.19028C20.6273 7.84745 20.8302 8.6035 20.8302 9.45845C20.8302 10.3708 20.6241 11.1524 20.212 11.8032C19.8063 12.4476 19.2203 12.942 18.454 13.2866C17.6941 13.6311 16.7796 13.8034 15.7107 13.8034ZM15.9425 14.8274V16.7319H8.39844V14.8274H15.9425Z" fill="#37CDAF"/>
</g>
<defs>
<clipPath id="clip0_1_8062">
<rect width="13" height="14" fill="#37CDAF" transform="translate(8 5)"/>
</clipPath>
</defs>
</svg>
