<svg width="42" height="40" viewBox="0 0 42 40" xmlns="http://www.w3.org/2000/svg">
<rect width="42" height="40" fill="#37CDAF"></rect>
<path d="M0.326708 10.1508C-2.43404 23.9545 12.9801 35.2276 21.0323 39.1387C25.8641 38.4483 34.8356 30.1664 39.6669 21.8841C43.5319 15.2583 41.7374 8.5405 40.3571 6.00982C39.4368 4.62944 36.354 1.59262 31.3846 0.488321C26.4153 -0.615978 22.4125 4.62944 21.0323 7.39019C20.8021 6.7 20.0656 5.04353 18.9613 3.93911C18.9613 2.55874 3.77764 -7.10388 0.326708 10.1508Z" fill="#FFFFFF"/>
<path d="M22.5155 22.8308H12.4219V20.2019H22.4488C23.3466 20.2019 24.0711 20.0654 24.6222 19.7924C25.1733 19.5106 25.5778 19.1187 25.8356 18.6167C26.0933 18.1146 26.2222 17.529 26.2222 16.8596C26.2222 16.2607 26.0933 15.7015 25.8356 15.1819C25.5778 14.6623 25.1778 14.2395 24.6355 13.9137C24.0933 13.579 23.3866 13.4117 22.5155 13.4117H18.4887V30.0042H15.1419V10.7695H22.5155C24.0088 10.7695 25.28 11.0293 26.3289 11.549C27.3779 12.0686 28.1823 12.7864 28.7423 13.7023C29.3023 14.6094 29.5824 15.6531 29.5824 16.8332C29.5824 18.0926 29.2979 19.1715 28.729 20.0698C28.1689 20.9594 27.3601 21.6418 26.3023 22.1175C25.2534 22.593 23.9911 22.8308 22.5155 22.8308ZM22.8355 24.2443V26.8733H12.4219V24.2443H22.8355Z" fill="#37CDAF"/>
</svg>
