<svg width="40" height="44" viewBox="0 0 40 44" xmlns="http://www.w3.org/2000/svg">
<rect width="40" height="44" fill="#37CDAF"></rect>
<path d="M0.00376752 5.97217V38.8357C0.00376752 42.5915 4.542 43.8435 6.81111 44H38.6746C39.2269 44 39.6746 43.5523 39.6746 43V41.0094C39.6746 40.4571 39.2269 40.0094 38.6746 40.0094H6.91013C6.84428 40.0094 6.77893 40.0035 6.71483 39.9884C5.90376 39.7974 4.40937 39.1051 4.22898 37.662C4.04647 36.2019 5.7708 35.5105 6.72987 35.3291C6.78399 35.3189 6.83879 35.3146 6.89388 35.3146H38.6834C39.2323 35.3146 39.6785 34.8755 39.6832 34.3267C39.7604 25.1594 39.8557 7.76909 39.6746 4.32904C39.4868 0.761 36.31 0.0254565 34.7451 0.103689C27.3117 0.0254429 11.1774 -0.0841021 6.10699 0.103689C1.03662 0.291481 -0.074479 4.09426 0.00376752 5.97217Z" fill="#FFFFFF"/>
<path d="M17.3751 7.67651V10.9018C17.3751 11.1611 17.1649 11.3713 16.9056 11.3713H12.0371C11.4848 11.3713 11.0371 11.819 11.0371 12.3713V14.8314C11.0371 15.3836 11.4848 15.8314 12.0371 15.8314H16.3751C16.9274 15.8314 17.3751 16.2791 17.3751 16.8314V27.5073C17.3751 28.0596 17.8228 28.5073 18.3751 28.5073H20.6004C21.1527 28.5073 21.6004 28.0596 21.6004 27.5073V16.8314C21.6004 16.2791 22.0481 15.8314 22.6004 15.8314H27.6426C28.1948 15.8314 28.6426 15.3836 28.6426 14.8314V11.9018C28.6426 11.3495 28.1948 10.9018 27.6426 10.9018H22.6004C22.0481 10.9018 21.6004 10.4541 21.6004 9.90182V7.67651C21.6004 7.12423 21.1527 6.67651 20.6004 6.67651H18.3751C17.8228 6.67651 17.3751 7.12423 17.3751 7.67651Z" fill="#37CDAF"/>
</svg>
