<svg width="60" height="48" viewBox="0 0 60 48" xmlns="http://www.w3.org/2000/svg">
<rect width="60" height="48" fill="#37CDAF"></rect>
<path d="M15 25.0282V47C15 47.5523 15.4477 48 16 48H22.9062C23.4585 48 23.9062 47.5523 23.9062 47V39.135C23.9062 39.0843 23.9097 39.0351 23.918 38.9851C24.2586 36.923 25.9242 32.9412 30 32.9412C34.0758 32.9412 35.7414 36.923 36.082 38.9851C36.0903 39.0351 36.0938 39.0843 36.0938 39.135V47C36.0938 47.5523 36.5415 48 37.0938 48H44C44.5523 48 45 47.5523 45 47V25.0282C45 24.6816 44.8205 24.3597 44.5256 24.1775L33.2869 17.2343C32.992 17.0521 32.8125 16.7302 32.8125 16.3835V12.7647C32.8125 12.2124 33.2602 11.7647 33.8125 11.7647H38.375C38.9273 11.7647 39.375 11.317 39.375 10.7647V7.11765C39.375 6.56536 38.9273 6.11765 38.375 6.11765H33.8125C33.2602 6.11765 32.8125 5.66993 32.8125 5.11765V1C32.8125 0.447715 32.3648 0 31.8125 0H28.1875C27.6352 0 27.1875 0.447715 27.1875 1V5.11765C27.1875 5.66993 26.7398 6.11765 26.1875 6.11765H22.0938C21.5415 6.11765 21.0938 6.56536 21.0938 7.11765V10.7647C21.0938 11.317 21.5415 11.7647 22.0938 11.7647H26.1875C26.7398 11.7647 27.1875 12.2124 27.1875 12.7647V16.3835C27.1875 16.7302 27.008 17.0521 26.7131 17.2343L15.4744 24.1775C15.1795 24.3597 15 24.6816 15 25.0282Z" fill="#FFFFFF"/>
<path d="M11.7188 32.0413V47C11.7188 47.5523 11.271 48 10.7188 48H1C0.447715 48 0 47.5523 0 47V46.5882V39.5294C0 35.7647 1.25 34.5098 1.875 34.3529L10.3615 31.1073C11.0163 30.8569 11.7188 31.3403 11.7188 32.0413Z" fill="#FFFFFF"/>
<path d="M48.2812 32.1158V47C48.2812 47.5523 48.729 48 49.2812 48H59.5294C59.7893 48 60 47.7893 60 47.5294V38.5882C60 36.929 59.5144 35.8791 59.1852 35.4387C59.11 35.3381 59.0034 35.2683 58.8882 35.2181L49.6813 31.1993C49.0207 30.911 48.2812 31.395 48.2812 32.1158Z" fill="#FFFFFF"/>
</svg>
