<svg width="51" height="41" viewBox="0 0 51 41" xmlns="http://www.w3.org/2000/svg">
<rect width="51" height="41" fill="#37CDAF"></rect>
<path d="M11.2707 26.1333L8.78692 20.492C8.37293 19.2383 7.48279 17.107 8.47637 16.1042C9.71833 14.8505 10.9602 15.1639 11.8916 16.1042C12.5501 16.769 13.1334 19.5516 15.6172 23.6258C17.6042 26.8852 18.101 32.0877 18.101 34.2815C18.2045 36.162 17.7905 40.1108 15.3067 40.863C12.823 41.6152 9.3043 39.0871 7.85543 37.729C5.57864 35.1173 0.838776 27.9508 0.0936442 20.1784C-0.837769 10.4629 5.37166 3.25486 6.92402 1.37444C8.47638 -0.505982 9.71831 -0.192578 10.9602 0.747631C12.2021 1.68784 9.82474 4.88463 8.78684 7.32886C7.85537 9.52244 6.40661 14.7463 6.30312 17.6714C6.30312 19.2382 8.9111 24.2529 9.40784 25.5065C10.0288 27.0735 10.3393 27.7003 10.9602 27.7003C11.457 27.7003 11.3742 26.6556 11.2707 26.1333Z" fill="#FFFFFF"/>
<path d="M10.6273 5.82698C9.86854 6.5678 7.99283 11.6919 7.14981 14.1613L8.73046 11.6921C9.36272 10.5603 10.7537 8.23492 11.2595 7.98798C11.8918 7.6793 13.4724 5.82698 13.7885 4.59226C14.1047 3.35755 12.2079 2.12284 12.524 2.43152C12.8402 2.7402 11.5756 4.90094 10.6273 5.82698Z" fill="#FFFFFF"/>
<path d="M12.2079 8.29666C11.4492 8.5436 8.5197 12.721 7.1498 14.7789C7.36055 14.7789 7.90852 14.6554 8.41433 14.1613C9.04659 13.5437 9.36272 14.4702 9.67885 13.5442C9.93176 12.8034 10.838 12.2066 11.2595 12.0008C11.7864 11.795 12.9666 11.0748 13.4724 9.84005C13.9782 8.60533 13.6832 7.88509 13.4724 7.6793C13.3671 7.6793 12.9666 7.80277 12.2079 8.29666Z" fill="#FFFFFF"/>
<path d="M39.2625 26.1333L41.7463 20.492C42.1603 19.2383 43.0504 17.107 42.0568 16.1042C40.8149 14.8505 39.573 15.1639 38.6416 16.1042C37.9831 16.769 37.3998 19.5516 34.916 23.6258C32.929 26.8852 32.4322 32.0877 32.4322 34.2815C32.3287 36.162 32.7427 40.1108 35.2265 40.863C37.7102 41.6152 41.2289 39.0871 42.6778 37.729C44.9546 35.1173 49.6944 27.9508 50.4396 20.1784C51.371 10.4629 45.1615 3.25486 43.6092 1.37444C42.0568 -0.505982 40.8149 -0.192578 39.573 0.747631C38.3311 1.68784 40.7085 4.88463 41.7464 7.32886C42.6778 9.52244 44.1266 14.7463 44.2301 17.6714C44.2301 19.2382 41.6221 24.2529 41.1254 25.5065C40.5044 27.0735 40.1939 27.7003 39.573 27.7003C39.0762 27.7003 39.159 26.6556 39.2625 26.1333Z" fill="#FFFFFF"/>
<path d="M39.9059 5.82698C40.6647 6.5678 42.5404 11.6919 43.3834 14.1613L41.8027 11.6921C41.1705 10.5603 39.7795 8.23492 39.2737 7.98798C38.6414 7.6793 37.0608 5.82698 36.7447 4.59226C36.4285 3.35755 38.3253 2.12284 38.0092 2.43152C37.693 2.7402 38.9576 4.90094 39.9059 5.82698Z" fill="#FFFFFF"/>
<path d="M38.3253 8.29666C39.084 8.5436 42.0135 12.721 43.3834 14.7789C43.1726 14.7789 42.6247 14.6554 42.1189 14.1613C41.4866 13.5437 41.1705 14.4702 40.8544 13.5442C40.6014 12.8034 39.6952 12.2066 39.2737 12.0008C38.7468 11.795 37.5666 11.0748 37.0608 9.84005C36.555 8.60533 36.85 7.88509 37.0608 7.6793C37.1662 7.6793 37.5666 7.80277 38.3253 8.29666Z" fill="#FFFFFF"/>
<path d="M23.5865 1.39136C23.5865 1.11522 23.8104 0.891357 24.0865 0.891357H26.7154C26.9916 0.891357 27.2154 1.11522 27.2154 1.39136V7.61092C27.2154 7.88706 27.4393 8.11092 27.7154 8.11092H33.3684C33.6445 8.11092 33.8684 8.33478 33.8684 8.61092V11.2207C33.8684 11.4968 33.6445 11.7207 33.3684 11.7207H27.7154C27.4393 11.7207 27.2154 11.9446 27.2154 12.2207V24.4566C27.2154 24.7327 26.9916 24.9566 26.7154 24.9566H24.0865C23.8104 24.9566 23.5865 24.7327 23.5865 24.4566V12.2207C23.5865 11.9446 23.3627 11.7207 23.0865 11.7207H17.4336C17.1575 11.7207 16.9336 11.4968 16.9336 11.2207V8.61092C16.9336 8.33478 17.1575 8.11092 17.4336 8.11092H23.0865C23.3627 8.11092 23.5865 7.88707 23.5865 7.61092V1.39136Z" fill="#FFFFFF"/>
</svg>
