<svg width="16" height="23" viewBox="0 0 16 23" fill="none" xmlns="http://www.w3.org/2000/svg">
<path d="M8 0C3.5808 0 0 3.20619 0 7.17761C0 14.0445 8 23 8 23C8 23 16 14.0431 16 7.17761C16 3.20763 12.4192 0 8 0ZM8 11.149C6.85427 11.149 5.75546 10.7399 4.9453 10.0115C4.13514 9.2832 3.68 8.29537 3.68 7.26535C3.68 6.23534 4.13514 5.24751 4.9453 4.51918C5.75546 3.79085 6.85427 3.38168 8 3.38168C9.14574 3.38168 10.2445 3.79085 11.0547 4.51918C11.8649 5.24751 12.32 6.23534 12.32 7.26535C12.32 8.29537 11.8649 9.2832 11.0547 10.0115C10.2445 10.7399 9.14574 11.149 8 11.149Z" fill="#37CDAF"/>
</svg>
