<svg width="10" height="20" viewBox="0 0 10 20" fill="none" xmlns="http://www.w3.org/2000/svg">
<path d="M9.32873 0.304329H9.34877L9.36864 0.301663C9.39719 0.297831 9.42624 0.300644 9.45352 0.309882C9.4808 0.31912 9.50558 0.334534 9.52593 0.354922C9.54628 0.375311 9.56164 0.400123 9.57083 0.427425C9.58001 0.454728 9.58277 0.483781 9.57888 0.512321L9.57613 0.53248V0.552825V3.8438V3.87926L9.5844 3.91374C9.58892 3.93259 9.58794 3.95071 9.58041 3.97153C9.57225 3.99412 9.55525 4.02204 9.52603 4.05053C9.52234 4.05253 9.51048 4.05748 9.48089 4.06286C9.45824 4.06697 9.43505 4.06983 9.4014 4.07397C9.39592 4.07464 9.39017 4.07535 9.3841 4.0761C9.35371 4.07986 9.31596 4.08472 9.27554 4.0923H7.35214C7.27871 4.08784 7.21371 4.08239 7.1542 4.07722C7.14757 4.07664 7.14093 4.07606 7.13431 4.07548C7.08119 4.07085 7.02869 4.06626 6.98197 4.06368C6.89177 4.0587 6.74383 4.05305 6.61134 4.12909C6.46075 4.21552 6.40132 4.36095 6.36964 4.47097C6.33794 4.58108 6.31523 4.72722 6.28965 4.89577L6.2863 4.91786L6.28625 4.94019L6.28296 6.58568L6.28236 6.88628H6.58296H9.32873H9.34868L9.36845 6.88364C9.39712 6.87981 9.42628 6.88264 9.45368 6.89191C9.48107 6.90119 9.50597 6.91665 9.52641 6.9371C9.54686 6.95755 9.56233 6.98244 9.5716 7.00983C9.58087 7.03723 9.5837 7.06639 9.57987 7.09506L9.57723 7.11483V7.13478V10.4258V10.4457L9.57987 10.4655C9.5837 10.4941 9.58087 10.5233 9.5716 10.5507C9.56232 10.5781 9.54686 10.603 9.52641 10.6234C9.50597 10.6439 9.48108 10.6593 9.45368 10.6686C9.42628 10.6779 9.39712 10.6807 9.36845 10.6769L9.34868 10.6743H9.32873H6.58625H6.28633L6.28625 10.9742L6.28406 19.2016L6.28404 19.2483L6.29822 19.2928C6.3175 19.3533 6.3012 19.3872 6.28183 19.4083C6.25797 19.4343 6.2086 19.4606 6.13573 19.4522L6.11861 19.4502H6.10138H2.75007H2.73083L2.71176 19.4526C2.68265 19.4564 2.65307 19.4534 2.62529 19.444C2.5975 19.4346 2.57223 19.4189 2.55142 19.3982C2.53061 19.3775 2.5148 19.3524 2.5052 19.3246C2.49561 19.2969 2.49248 19.2674 2.49605 19.2382L2.49828 19.22V19.2017V10.9743V10.6743H2.19828H0.552794H0.532846L0.513074 10.6769C0.484408 10.6807 0.455244 10.6779 0.427847 10.6686C0.400449 10.6593 0.37556 10.6439 0.355111 10.6234C0.334663 10.603 0.319201 10.5781 0.309929 10.5507C0.300658 10.5233 0.297827 10.4941 0.301657 10.4655L0.304298 10.4457V10.4258V7.13478V7.11483L0.301657 7.09506C0.297827 7.06639 0.300658 7.03723 0.309929 7.00983C0.319199 6.98244 0.334661 6.95755 0.355111 6.9371C0.375563 6.91665 0.400453 6.90118 0.427847 6.89191C0.455243 6.88264 0.484407 6.87981 0.513074 6.88364L0.532846 6.88628H0.552794H2.19828H2.49828V6.58628V4.77076C2.49828 3.52547 2.62105 2.40606 3.15248 1.60281C3.664 0.829649 4.60095 0.286324 6.39895 0.304314V0.304329H6.40196H9.32873ZM9.5274 4.04959C9.52748 4.04961 9.52712 4.04993 9.52608 4.0505L9.5274 4.04959Z" fill="white" stroke="#37CDAF" stroke-width="0.6"/>
</svg>
