<svg width="21" height="21" viewBox="0 0 21 21" fill="none" xmlns="http://www.w3.org/2000/svg">
<path d="M17.9093 16.6993H15.6633V10.8199V10.2199L15.1833 10.5799L11 13.7172L6.81666 10.5799L6.33667 10.2199V10.8199V16.7H4.09067C3.98678 16.7 3.88392 16.6795 3.78795 16.6398C3.69198 16.6 3.6048 16.5418 3.53138 16.4683C3.45796 16.3949 3.39973 16.3077 3.36003 16.2118C3.32034 16.1158 3.29994 16.013 3.3 15.9092V15.909V6.63918C3.3 5.53815 4.55706 4.90954 5.43794 5.5702C5.43795 5.57022 5.43797 5.57023 5.43799 5.57024L6.4566 6.33464L6.45672 6.33472L10.8201 9.60572L11 9.74064L11.18 9.60568L15.5432 6.33345L15.5433 6.33336L16.5619 5.57035L16.562 5.57026C17.4424 4.91004 18.7 5.53833 18.7 6.63918V15.909C18.7 16.3457 18.3464 16.6993 17.9093 16.6993Z" fill="white" stroke="#37CDAF" stroke-width="0.6"/>
</svg>
