<svg width="20" height="17" viewBox="0 0 20 17" fill="none" xmlns="http://www.w3.org/2000/svg">
<path d="M0.733078 5.86689L0.983078 5.86709C0.983131 5.79972 1.00015 5.73346 1.03256 5.67441C1.06426 5.61664 1.1097 5.5676 1.16483 5.53159C1.21275 5.50401 1.2652 5.48518 1.31974 5.47597L1.6629 5.41807L1.49848 5.11135C1.16767 4.49422 1.0005 3.80263 1.01292 3.10254C1.02533 2.40257 1.21686 1.71745 1.56924 1.11252C1.59862 1.06247 1.63963 1.02023 1.6888 0.989392C1.73804 0.9585 1.79402 0.939951 1.85196 0.935321C1.90991 0.93069 1.96812 0.940115 2.02165 0.962794C2.07499 0.985395 2.12212 1.0205 2.15904 1.06513C3.83291 3.11792 6.23271 4.44765 8.86072 4.77849L9.15356 4.81536L9.14174 4.52044C9.1196 3.96809 9.20922 3.41697 9.40522 2.9001C9.60122 2.38323 9.89957 1.91126 10.2824 1.51249C10.6652 1.11371 11.1246 0.796343 11.633 0.579404C12.1414 0.362498 12.6883 0.250458 13.241 0.25C14.2586 0.251326 15.2396 0.629306 15.995 1.31108L16.0933 1.39982L16.222 1.36831C16.9059 1.20079 17.5612 0.932876 18.1666 0.573298C18.2293 0.536608 18.3016 0.51973 18.3741 0.524887C18.4467 0.530057 18.5161 0.557141 18.573 0.602562C18.63 0.647984 18.6718 0.709609 18.693 0.779299C18.7142 0.848937 18.7137 0.923357 18.6918 0.992746C18.6159 1.23145 18.5178 1.4625 18.3988 1.68287L18.0627 2.30493L18.7151 2.03236C18.7865 2.00255 18.8655 1.9965 18.9406 2.01513C19.0157 2.03376 19.0828 2.07607 19.1319 2.13579C19.1811 2.19551 19.2097 2.26947 19.2135 2.34673C19.2174 2.42399 19.1962 2.50042 19.1532 2.56472L19.1531 2.56489C18.6869 3.26337 18.1119 3.88275 17.45 4.39953L17.3531 4.47518L17.3539 4.59811L17.355 4.7836C17.355 4.7839 17.355 4.7842 17.355 4.7845C17.3545 10.2025 13.2329 15.7919 6.34565 15.7919H6.34556C4.24325 15.7926 2.18499 15.1894 0.415695 14.0539C0.347227 14.0098 0.295659 13.9439 0.269359 13.8669C0.243265 13.7904 0.243563 13.7074 0.270174 13.6312C0.299023 13.5549 0.352169 13.4902 0.421434 13.4472C0.490772 13.404 0.572372 13.385 0.653611 13.3929C2.03162 13.5546 3.42708 13.3171 4.6741 12.7088L5.17482 12.4645L4.65948 12.2529C4.10665 12.0258 3.61012 11.6806 3.20465 11.2416C2.79919 10.8025 2.49458 10.2801 2.31214 9.71096L2.31194 9.71034C2.29275 9.65101 2.28935 9.58769 2.30208 9.52664C2.31436 9.46776 2.34122 9.41295 2.38016 9.36722L2.41391 9.33346L2.60343 9.14395L2.40121 8.96805C1.52554 8.20641 0.983078 7.08612 0.983078 5.86689H0.733078ZM0.733078 5.86689C0.733078 7.07332 1.23343 8.1876 2.05311 8.98715L1.04038 5.31476C1.03829 5.31596 1.0362 5.31718 1.03412 5.3184C0.94192 5.37719 0.866012 5.45826 0.813399 5.55412C0.760787 5.64998 0.733164 5.75754 0.733078 5.86689Z" fill="white" stroke="#37CDAF" stroke-width="0.5"/>
</svg>
